<svg xmlns="http://www.w3.org/2000/svg" width="16" height="16" viewBox="0 0 16 16" fill="none">
<path d="M1.4998 3.77591H1.49977C1.49716 3.5325 1.54989 3.29167 1.65398 3.07162L1.65529 3.06885L1.65528 3.06885C1.86146 2.62595 2.1606 2.35214 2.62175 2.04371C2.87819 1.87463 3.14962 1.72948 3.43262 1.61006L3.4341 1.60944C3.4654 1.59611 3.49446 1.58313 3.51709 1.57302C3.52083 1.57135 3.52439 1.56976 3.52776 1.56826L3.32418 1.11158M1.4998 3.77591L5.83324 6.63064C5.7973 6.46252 5.85168 6.37033 6.09793 6.04783L5.70052 5.7444C5.70052 5.7444 5.70053 5.7444 5.70053 5.74439C5.70613 5.73705 5.71165 5.72984 5.71708 5.72272C5.74748 5.68296 5.77547 5.64634 5.80364 5.60805L5.80519 5.60596C6.05966 5.26389 6.12949 5.12341 6.12949 4.95877V4.95689C6.12949 4.79628 6.06803 4.65109 5.83368 4.18643C5.70107 3.92354 5.44784 3.47715 5.15766 3.02737C4.86284 2.5704 4.55346 2.14708 4.31 1.90576L4.30984 1.9056C4.02499 1.623 3.91888 1.5485 3.83506 1.51685L3.83499 1.51682C3.78216 1.49687 3.74287 1.49712 3.7048 1.50409C3.65604 1.513 3.60986 1.53197 3.52631 1.5689L3.32418 1.11158M1.4998 3.77591V3.78127C1.4998 4.27149 1.67775 5.04152 2.37373 6.28728C3.232 7.8177 4.01374 8.98502 5.52159 10.4969C6.9836 11.9598 7.91376 12.6594 9.72655 13.6556L9.72665 13.6556C11.7372 14.7611 12.6598 14.5048 12.9342 14.3765L12.9349 14.3762C13.3756 14.1708 13.6481 13.8717 13.9578 13.4083C14.1259 13.1514 14.2701 12.8796 14.3885 12.5963L14.3884 12.5963L14.3905 12.5916C14.405 12.5577 14.4188 12.5266 14.4309 12.4992L14.4309 12.4992L14.4317 12.4975C14.4677 12.4176 14.4866 12.3713 14.4953 12.3235C14.5022 12.2856 14.5024 12.2464 14.4826 12.1941L14.4826 12.1941L14.482 12.1926C14.4503 12.1082 14.3758 12.0013 14.0944 11.7164L14.0941 11.7161C13.8521 11.4707 13.4361 11.158 12.9857 10.8625C12.5395 10.5697 12.0966 10.3179 11.8192 10.1882C11.377 9.98236 11.2121 9.9156 11.0394 9.91533C10.861 9.91537 10.7038 9.99681 10.4036 10.2169L10.4032 10.2173C10.353 10.254 10.3047 10.2907 10.2538 10.3293L10.2495 10.3326C10.2493 10.3327 10.2492 10.3328 10.249 10.3329C10.249 10.333 10.249 10.333 10.249 10.333C10.104 10.4433 9.95963 10.5517 9.82075 10.617C9.63356 10.7051 9.45855 10.7178 9.27837 10.6793L9.27749 10.6792C9.02464 10.6248 8.64022 10.4365 8.24303 10.1854C7.82755 9.92276 7.34333 9.55666 6.88773 9.10006C6.43178 8.6431 6.07385 8.16457 5.8191 7.75419C5.57437 7.35996 5.39757 6.98475 5.34429 6.73516L1.4998 3.77591ZM3.32418 1.11158L3.32936 1.10929C3.48557 1.04022 3.71714 0.937818 4.01168 1.04908L1.20199 2.85783C1.46355 2.29596 1.84824 1.95939 2.34511 1.62721C2.62754 1.44088 2.92651 1.28093 3.23824 1.14939C3.2698 1.13596 3.29824 1.12314 3.32418 1.11158Z" fill="white" stroke="white"/>
</svg>