<svg xmlns="http://www.w3.org/2000/svg" width="63" height="63" viewBox="0 0 63 63" fill="none">
  <g clip-path="url(#clip0_381_1620)">
    <path d="M51.1874 33.0015L31.4999 52.5L11.8124 33.0015C10.5139 31.7378 9.491 30.219 8.80825 28.5406C8.1255 26.8623 7.79766 25.0607 7.84537 23.2494C7.89308 21.4381 8.31531 19.6563 9.08547 18.0162C9.85563 16.3761 10.957 14.9133 12.3203 13.7197C13.6836 12.5262 15.2793 11.6279 17.0068 11.0814C18.7343 10.5348 20.5563 10.3519 22.358 10.5441C24.1597 10.7363 25.9021 11.2994 27.4755 12.1981C29.0488 13.0968 30.4191 14.3115 31.4999 15.7657C32.5855 14.322 33.9573 13.1179 35.5296 12.2288C37.1019 11.3397 38.8407 10.7847 40.6374 10.5985C42.434 10.4123 44.2498 10.5989 45.971 11.1468C47.6922 11.6946 49.2818 12.5918 50.6403 13.7822C51.9988 14.9726 53.0969 16.4306 53.866 18.0649C54.6351 19.6993 55.0586 21.4748 55.11 23.2803C55.1614 25.0859 54.8395 26.8826 54.1645 28.558C53.4896 30.2334 52.4761 31.7515 51.1874 33.0172" stroke="#2A6BAC" stroke-width="3" stroke-linecap="round" stroke-linejoin="round"/>
    <path d="M31.5001 15.75L22.856 24.3941C22.3639 24.8864 22.0874 25.5539 22.0874 26.25C22.0874 26.9461 22.3639 27.6136 22.856 28.1059L24.2813 29.5312C26.0926 31.3425 29.0326 31.3425 30.8438 29.5312L33.4688 26.9062C35.0353 25.3398 37.1598 24.4598 39.3751 24.4598C41.5904 24.4598 43.7149 25.3398 45.2813 26.9062L51.1876 32.8125" stroke="#2A6BAC" stroke-width="3" stroke-linecap="round" stroke-linejoin="round"/>
    <path d="M32.8125 40.6875L38.0625 45.9375" stroke="#2A6BAC" stroke-width="3" stroke-linecap="round" stroke-linejoin="round"/>
    <path d="M39.375 34.125L44.625 39.375" stroke="#2A6BAC" stroke-width="3" stroke-linecap="round" stroke-linejoin="round"/>
  </g>
  <defs>
    <clipPath id="clip0_381_1620">
      <rect width="63" height="63" fill="white"/>
    </clipPath>
  </defs>
</svg>