<svg xmlns="http://www.w3.org/2000/svg" width="24" height="25" viewBox="0 0 24 25" fill="none">
<path opacity="0.1" fill-rule="evenodd" clip-rule="evenodd" d="M0 12.6748C0 6.04739 5.37258 0.674805 12 0.674805C18.6274 0.674805 24 6.04739 24 12.6748C24 19.3022 18.6274 24.6748 12 24.6748C5.37258 24.6748 0 19.3022 0 12.6748Z" fill="white"/>
<path d="M16.6711 16.1436L17.2031 12.6748H13.875V10.4248C13.875 9.47559 14.3391 8.5498 15.8297 8.5498H17.3438V5.59668C17.3438 5.59668 15.9703 5.3623 14.6578 5.3623C11.9156 5.3623 10.125 7.02402 10.125 10.0311V12.6748H7.07812V16.1436H10.125V24.5295C10.7367 24.6256 11.3625 24.6748 12 24.6748C12.6375 24.6748 13.2633 24.6256 13.875 24.5295V16.1436H16.6711Z" fill="white"/>
</svg>