<svg width="63" height="63" viewBox="0 0 63 63" fill="none" xmlns="http://www.w3.org/2000/svg">
<rect width="63" height="63" fill="#F5F5F5"/>
<path d="M-1020 -1641C-1020 -1642.1 -1019.1 -1643 -1018 -1643H2069C2070.1 -1643 2071 -1642.1 2071 -1641V2813C2071 2814.1 2070.1 2815 2069 2815H-1018C-1019.1 2815 -1020 2814.1 -1020 2813V-1641Z" fill="#A1A1A1"/>
<path d="M-1018 -1642H2069V-1644H-1018V-1642ZM2070 -1641V2813H2072V-1641H2070ZM2069 2814H-1018V2816H2069V2814ZM-1019 2813V-1641H-1021V2813H-1019ZM-1018 2814C-1018.55 2814 -1019 2813.55 -1019 2813H-1021C-1021 2814.66 -1019.66 2816 -1018 2816V2814ZM2070 2813C2070 2813.55 2069.55 2814 2069 2814V2816C2070.66 2816 2072 2814.66 2072 2813H2070ZM2069 -1642C2069.55 -1642 2070 -1641.55 2070 -1641H2072C2072 -1642.66 2070.66 -1644 2069 -1644V-1642ZM-1018 -1644C-1019.66 -1644 -1021 -1642.66 -1021 -1641H-1019C-1019 -1641.55 -1018.55 -1642 -1018 -1642V-1644Z" fill="black" fill-opacity="0.1"/>
<rect width="1440" height="3227" transform="translate(-740 -1220)" fill="white"/>
<rect width="1440" height="286" transform="translate(-740 -60)" fill="#F5F7FA"/>
<g clip-path="url(#clip0_302_878)">
<g clip-path="url(#clip1_302_878)">
<mask id="path-3-outside-1_302_878" maskUnits="userSpaceOnUse" x="17.375" y="4.4375" width="26" height="32" fill="black">
<rect fill="white" x="17.375" y="4.4375" width="26" height="32"/>
<path d="M39.3369 31.1857C38.8838 31.1857 38.4631 31.0685 38.0895 30.8799V30.8849C38.0895 31.5558 37.8124 32.1859 37.3097 32.6578C36.807 33.1309 36.1381 33.3917 35.4262 33.3917C34.9665 33.3917 34.5405 33.2716 34.1628 33.078C34.1246 33.6917 33.864 34.2654 33.399 34.7036C32.8963 35.1767 32.2274 35.4375 31.5149 35.4375C30.0995 35.4375 28.95 34.3902 28.8672 33.0775C28.4292 33.3003 27.9341 33.4172 27.4233 33.3863C26.0309 33.3003 24.9405 32.168 24.9405 30.8077V19.5323L23.5764 21.7566C23.0569 22.6074 22.0844 23.1356 21.0373 23.1356C20.527 23.1356 20.023 23.0096 19.5766 22.7689C19.0208 22.4655 18.6231 21.9786 18.4578 21.3961C18.2915 20.8132 18.3775 20.2036 18.6989 19.6812C18.6994 19.6812 23.1619 12.4073 23.4342 11.9605C23.4665 11.8933 23.5588 11.6985 23.6372 11.5324C23.7121 11.3739 23.7764 11.2111 23.838 11.0476C25.1838 7.47143 28.5161 5.25 32.5349 5.25C37.7537 5.25 41.9996 9.58347 41.9996 14.9101L42 28.6785C42 29.3486 41.7234 29.9782 41.2211 30.4518C40.7185 30.925 40.0496 31.1857 39.3369 31.1857ZM32.535 6.58205C29.0817 6.58205 26.3293 8.41798 25.1719 11.4931C25.0979 11.6883 25.0208 11.8836 24.9308 12.0739C24.6697 12.625 24.6697 12.625 24.5961 12.7043L24.5864 12.6964C24.222 13.3435 23.1395 15.108 19.9243 20.3478C19.7922 20.5627 19.7572 20.8122 19.8245 21.0509C19.8928 21.2896 20.0564 21.4907 20.2829 21.6137C20.986 21.9939 21.9488 21.7485 22.3495 21.0914L25.0354 16.7144C25.1959 16.4536 25.5204 16.3256 25.8316 16.4048C26.141 16.4829 26.356 16.747 26.356 17.0482V30.8081C26.356 31.4573 26.8764 32.0176 27.5161 32.0573C27.8849 32.0756 28.2289 31.9592 28.4873 31.7164C28.7223 31.4952 28.8517 31.2007 28.8517 30.8857V21.8865C28.8517 21.5185 29.1687 21.2202 29.5597 21.2202C29.9506 21.2202 30.2676 21.5181 30.2676 21.8865L30.2672 32.9311C30.2672 33.5787 30.827 34.1057 31.515 34.1057C31.8492 34.1057 32.1631 33.9839 32.3985 33.7627C32.6334 33.5412 32.7629 33.2458 32.7629 32.9311V21.8865C32.7629 21.5185 33.0794 21.2202 33.4708 21.2202C33.8618 21.2202 34.1787 21.5181 34.1787 21.8865L34.1783 30.7821V30.8856C34.1783 31.5328 34.7382 32.0597 35.4266 32.0597C35.7604 32.0597 36.0733 31.9375 36.3101 31.7155C36.545 31.4948 36.6744 31.2002 36.6744 30.8852V21.886C36.6744 21.518 36.991 21.2197 37.3824 21.2197C37.7734 21.2197 38.0903 21.5176 38.0903 21.886L38.0894 28.6788C38.0894 29.3268 38.6493 29.8538 39.3368 29.8538C39.6715 29.8538 39.9845 29.7315 40.2194 29.5108C40.4552 29.2888 40.5842 28.9934 40.5842 28.6788L40.5847 14.9104C40.5847 10.3187 36.9737 6.58205 32.535 6.58205Z"/>
</mask>
<path d="M39.3369 31.1857C38.8838 31.1857 38.4631 31.0685 38.0895 30.8799V30.8849C38.0895 31.5558 37.8124 32.1859 37.3097 32.6578C36.807 33.1309 36.1381 33.3917 35.4262 33.3917C34.9665 33.3917 34.5405 33.2716 34.1628 33.078C34.1246 33.6917 33.864 34.2654 33.399 34.7036C32.8963 35.1767 32.2274 35.4375 31.5149 35.4375C30.0995 35.4375 28.95 34.3902 28.8672 33.0775C28.4292 33.3003 27.9341 33.4172 27.4233 33.3863C26.0309 33.3003 24.9405 32.168 24.9405 30.8077V19.5323L23.5764 21.7566C23.0569 22.6074 22.0844 23.1356 21.0373 23.1356C20.527 23.1356 20.023 23.0096 19.5766 22.7689C19.0208 22.4655 18.6231 21.9786 18.4578 21.3961C18.2915 20.8132 18.3775 20.2036 18.6989 19.6812C18.6994 19.6812 23.1619 12.4073 23.4342 11.9605C23.4665 11.8933 23.5588 11.6985 23.6372 11.5324C23.7121 11.3739 23.7764 11.2111 23.838 11.0476C25.1838 7.47143 28.5161 5.25 32.5349 5.25C37.7537 5.25 41.9996 9.58347 41.9996 14.9101L42 28.6785C42 29.3486 41.7234 29.9782 41.2211 30.4518C40.7185 30.925 40.0496 31.1857 39.3369 31.1857ZM32.535 6.58205C29.0817 6.58205 26.3293 8.41798 25.1719 11.4931C25.0979 11.6883 25.0208 11.8836 24.9308 12.0739C24.6697 12.625 24.6697 12.625 24.5961 12.7043L24.5864 12.6964C24.222 13.3435 23.1395 15.108 19.9243 20.3478C19.7922 20.5627 19.7572 20.8122 19.8245 21.0509C19.8928 21.2896 20.0564 21.4907 20.2829 21.6137C20.986 21.9939 21.9488 21.7485 22.3495 21.0914L25.0354 16.7144C25.1959 16.4536 25.5204 16.3256 25.8316 16.4048C26.141 16.4829 26.356 16.747 26.356 17.0482V30.8081C26.356 31.4573 26.8764 32.0176 27.5161 32.0573C27.8849 32.0756 28.2289 31.9592 28.4873 31.7164C28.7223 31.4952 28.8517 31.2007 28.8517 30.8857V21.8865C28.8517 21.5185 29.1687 21.2202 29.5597 21.2202C29.9506 21.2202 30.2676 21.5181 30.2676 21.8865L30.2672 32.9311C30.2672 33.5787 30.827 34.1057 31.515 34.1057C31.8492 34.1057 32.1631 33.9839 32.3985 33.7627C32.6334 33.5412 32.7629 33.2458 32.7629 32.9311V21.8865C32.7629 21.5185 33.0794 21.2202 33.4708 21.2202C33.8618 21.2202 34.1787 21.5181 34.1787 21.8865L34.1783 30.7821V30.8856C34.1783 31.5328 34.7382 32.0597 35.4266 32.0597C35.7604 32.0597 36.0733 31.9375 36.3101 31.7155C36.545 31.4948 36.6744 31.2002 36.6744 30.8852V21.886C36.6744 21.518 36.991 21.2197 37.3824 21.2197C37.7734 21.2197 38.0903 21.5176 38.0903 21.886L38.0894 28.6788C38.0894 29.3268 38.6493 29.8538 39.3368 29.8538C39.6715 29.8538 39.9845 29.7315 40.2194 29.5108C40.4552 29.2888 40.5842 28.9934 40.5842 28.6788L40.5847 14.9104C40.5847 10.3187 36.9737 6.58205 32.535 6.58205Z" fill="#2A6BAC"/>
<path d="M39.3369 31.1857C38.8838 31.1857 38.4631 31.0685 38.0895 30.8799V30.8849C38.0895 31.5558 37.8124 32.1859 37.3097 32.6578C36.807 33.1309 36.1381 33.3917 35.4262 33.3917C34.9665 33.3917 34.5405 33.2716 34.1628 33.078C34.1246 33.6917 33.864 34.2654 33.399 34.7036C32.8963 35.1767 32.2274 35.4375 31.5149 35.4375C30.0995 35.4375 28.95 34.3902 28.8672 33.0775C28.4292 33.3003 27.9341 33.4172 27.4233 33.3863C26.0309 33.3003 24.9405 32.168 24.9405 30.8077V19.5323L23.5764 21.7566C23.0569 22.6074 22.0844 23.1356 21.0373 23.1356C20.527 23.1356 20.023 23.0096 19.5766 22.7689C19.0208 22.4655 18.6231 21.9786 18.4578 21.3961C18.2915 20.8132 18.3775 20.2036 18.6989 19.6812C18.6994 19.6812 23.1619 12.4073 23.4342 11.9605C23.4665 11.8933 23.5588 11.6985 23.6372 11.5324C23.7121 11.3739 23.7764 11.2111 23.838 11.0476C25.1838 7.47143 28.5161 5.25 32.5349 5.25C37.7537 5.25 41.9996 9.58347 41.9996 14.9101L42 28.6785C42 29.3486 41.7234 29.9782 41.2211 30.4518C40.7185 30.925 40.0496 31.1857 39.3369 31.1857ZM32.535 6.58205C29.0817 6.58205 26.3293 8.41798 25.1719 11.4931C25.0979 11.6883 25.0208 11.8836 24.9308 12.0739C24.6697 12.625 24.6697 12.625 24.5961 12.7043L24.5864 12.6964C24.222 13.3435 23.1395 15.108 19.9243 20.3478C19.7922 20.5627 19.7572 20.8122 19.8245 21.0509C19.8928 21.2896 20.0564 21.4907 20.2829 21.6137C20.986 21.9939 21.9488 21.7485 22.3495 21.0914L25.0354 16.7144C25.1959 16.4536 25.5204 16.3256 25.8316 16.4048C26.141 16.4829 26.356 16.747 26.356 17.0482V30.8081C26.356 31.4573 26.8764 32.0176 27.5161 32.0573C27.8849 32.0756 28.2289 31.9592 28.4873 31.7164C28.7223 31.4952 28.8517 31.2007 28.8517 30.8857V21.8865C28.8517 21.5185 29.1687 21.2202 29.5597 21.2202C29.9506 21.2202 30.2676 21.5181 30.2676 21.8865L30.2672 32.9311C30.2672 33.5787 30.827 34.1057 31.515 34.1057C31.8492 34.1057 32.1631 33.9839 32.3985 33.7627C32.6334 33.5412 32.7629 33.2458 32.7629 32.9311V21.8865C32.7629 21.5185 33.0794 21.2202 33.4708 21.2202C33.8618 21.2202 34.1787 21.5181 34.1787 21.8865L34.1783 30.7821V30.8856C34.1783 31.5328 34.7382 32.0597 35.4266 32.0597C35.7604 32.0597 36.0733 31.9375 36.3101 31.7155C36.545 31.4948 36.6744 31.2002 36.6744 30.8852V21.886C36.6744 21.518 36.991 21.2197 37.3824 21.2197C37.7734 21.2197 38.0903 21.5176 38.0903 21.886L38.0894 28.6788C38.0894 29.3268 38.6493 29.8538 39.3368 29.8538C39.6715 29.8538 39.9845 29.7315 40.2194 29.5108C40.4552 29.2888 40.5842 28.9934 40.5842 28.6788L40.5847 14.9104C40.5847 10.3187 36.9737 6.58205 32.535 6.58205Z" stroke="#2A6BAC" mask="url(#path-3-outside-1_302_878)"/>
<mask id="path-4-outside-2_302_878" maskUnits="userSpaceOnUse" x="1.625" y="34.0625" width="30" height="26" fill="black">
<rect fill="white" x="1.625" y="34.0625" width="30" height="26"/>
<path d="M12.6154 41.6414L22.4239 35.908C23.6065 35.2159 25.1281 35.51 25.8866 36.5777C26.1634 36.9667 26.3047 37.4199 26.3267 37.8814C26.6924 37.6954 27.0903 37.5944 27.4953 37.5944C27.7027 37.5944 27.911 37.6195 28.1167 37.6694C28.7757 37.8299 29.331 38.2312 29.6802 38.7986C30.0298 39.3669 30.1318 40.0329 29.9672 40.6743C29.8152 41.2678 29.4449 41.7673 28.9298 42.11C29.29 42.317 29.6007 42.5995 29.8216 42.9591C30.1712 43.5275 30.2732 44.1932 30.109 44.8353C29.9443 45.4766 29.5325 46.0177 28.9493 46.3588L28.9459 46.3608C29.2997 46.5675 29.6049 46.8471 29.8233 47.2013C30.1733 47.7697 30.2753 48.4357 30.1107 49.0778C29.9456 49.7195 29.5338 50.2606 28.9514 50.6013L16.9751 57.6021C14.7398 58.9082 12.1558 59.3591 9.70009 58.8703C7.22237 58.3771 5.17037 56.9893 3.92267 54.9626C1.94814 51.7561 2.24406 47.9676 4.69342 45.0762C4.80559 44.9442 4.91606 44.8097 5.01637 44.6703C5.12261 44.5231 5.24662 44.3499 5.28895 44.2905C5.54247 43.8492 9.67944 36.5865 9.67901 36.5874C10.0968 35.8528 10.8798 35.4371 11.6873 35.4375C12.064 35.4375 12.4462 35.5278 12.7988 35.7184C13.2246 35.9501 13.5823 36.2879 13.8324 36.695C14.3467 37.5301 14.3649 38.5752 13.8807 39.421L12.6154 41.6414ZM12.6742 37.372C12.543 37.1588 12.3627 36.9889 12.1422 36.8685C11.6863 36.6227 11.1124 36.7827 10.8614 37.2252C7.90122 42.4217 6.89212 44.1926 6.5027 44.8228L6.51158 44.8248C6.47899 44.9304 6.47899 44.9304 6.12262 45.4265C6.00156 45.5944 5.86994 45.7557 5.73576 45.9144C3.62958 48.4009 3.38503 51.53 5.08098 54.2852C6.1315 55.9918 7.86773 57.1618 9.97001 57.58C12.0952 58.0011 14.335 57.6093 16.2791 56.4727L28.2565 49.4716C28.53 49.312 28.723 49.0583 28.8 48.7577C28.877 48.4575 28.8292 48.1453 28.665 47.8788C28.3272 47.3303 27.5937 47.1501 27.0308 47.4804L21.1222 50.9345C20.8022 51.1217 20.3865 51.0211 20.1948 50.7089C20.0026 50.3971 20.1063 49.9925 20.4263 49.8053L26.3354 46.3513L28.2544 45.2295C28.5279 45.0695 28.7213 44.8158 28.7983 44.516C28.8754 44.2153 28.8275 43.9027 28.6633 43.6367C28.3251 43.0878 27.5916 42.9092 27.0291 43.2383L19.201 47.8141C18.8802 48.0018 18.4658 47.9003 18.2736 47.5885C18.0815 47.2767 18.1856 46.8722 18.5052 46.6849L28.1127 41.0691C28.3861 40.9091 28.5791 40.6558 28.6561 40.3552C28.7332 40.0549 28.6853 39.7428 28.5215 39.4763C28.3577 39.2103 28.0974 39.0223 27.7889 38.9472C27.4786 38.8721 27.1595 38.9187 26.8869 39.0779L25.1084 40.1177C25.108 40.1177 25.108 40.1181 25.1075 40.1181H25.1071L17.2794 44.6938C16.9586 44.8819 16.5438 44.7805 16.3521 44.4683C16.1599 44.1565 16.264 43.7519 16.5836 43.5646L24.4117 38.9889C24.6851 38.8289 24.8786 38.5752 24.9556 38.2754C25.0403 37.9463 24.9759 37.6097 24.7753 37.3277C24.4274 36.8373 23.6833 36.707 23.1191 37.0373L11.1503 44.0336C10.8883 44.1862 10.5527 44.1491 10.333 43.9424C10.1129 43.7354 10.0634 43.41 10.2116 43.1498L12.7003 38.7806C12.9501 38.3439 12.9403 37.8044 12.6741 37.3722L12.6742 37.372Z"/>
</mask>
<path d="M12.6154 41.6414L22.4239 35.908C23.6065 35.2159 25.1281 35.51 25.8866 36.5777C26.1634 36.9667 26.3047 37.4199 26.3267 37.8814C26.6924 37.6954 27.0903 37.5944 27.4953 37.5944C27.7027 37.5944 27.911 37.6195 28.1167 37.6694C28.7757 37.8299 29.331 38.2312 29.6802 38.7986C30.0298 39.3669 30.1318 40.0329 29.9672 40.6743C29.8152 41.2678 29.4449 41.7673 28.9298 42.11C29.29 42.317 29.6007 42.5995 29.8216 42.9591C30.1712 43.5275 30.2732 44.1932 30.109 44.8353C29.9443 45.4766 29.5325 46.0177 28.9493 46.3588L28.9459 46.3608C29.2997 46.5675 29.6049 46.8471 29.8233 47.2013C30.1733 47.7697 30.2753 48.4357 30.1107 49.0778C29.9456 49.7195 29.5338 50.2606 28.9514 50.6013L16.9751 57.6021C14.7398 58.9082 12.1558 59.3591 9.70009 58.8703C7.22237 58.3771 5.17037 56.9893 3.92267 54.9626C1.94814 51.7561 2.24406 47.9676 4.69342 45.0762C4.80559 44.9442 4.91606 44.8097 5.01637 44.6703C5.12261 44.5231 5.24662 44.3499 5.28895 44.2905C5.54247 43.8492 9.67944 36.5865 9.67901 36.5874C10.0968 35.8528 10.8798 35.4371 11.6873 35.4375C12.064 35.4375 12.4462 35.5278 12.7988 35.7184C13.2246 35.9501 13.5823 36.2879 13.8324 36.695C14.3467 37.5301 14.3649 38.5752 13.8807 39.421L12.6154 41.6414ZM12.6742 37.372C12.543 37.1588 12.3627 36.9889 12.1422 36.8685C11.6863 36.6227 11.1124 36.7827 10.8614 37.2252C7.90122 42.4217 6.89212 44.1926 6.5027 44.8228L6.51158 44.8248C6.47899 44.9304 6.47899 44.9304 6.12262 45.4265C6.00156 45.5944 5.86994 45.7557 5.73576 45.9144C3.62958 48.4009 3.38503 51.53 5.08098 54.2852C6.1315 55.9918 7.86773 57.1618 9.97001 57.58C12.0952 58.0011 14.335 57.6093 16.2791 56.4727L28.2565 49.4716C28.53 49.312 28.723 49.0583 28.8 48.7577C28.877 48.4575 28.8292 48.1453 28.665 47.8788C28.3272 47.3303 27.5937 47.1501 27.0308 47.4804L21.1222 50.9345C20.8022 51.1217 20.3865 51.0211 20.1948 50.7089C20.0026 50.3971 20.1063 49.9925 20.4263 49.8053L26.3354 46.3513L28.2544 45.2295C28.5279 45.0695 28.7213 44.8158 28.7983 44.516C28.8754 44.2153 28.8275 43.9027 28.6633 43.6367C28.3251 43.0878 27.5916 42.9092 27.0291 43.2383L19.201 47.8141C18.8802 48.0018 18.4658 47.9003 18.2736 47.5885C18.0815 47.2767 18.1856 46.8722 18.5052 46.6849L28.1127 41.0691C28.3861 40.9091 28.5791 40.6558 28.6561 40.3552C28.7332 40.0549 28.6853 39.7428 28.5215 39.4763C28.3577 39.2103 28.0974 39.0223 27.7889 38.9472C27.4786 38.8721 27.1595 38.9187 26.8869 39.0779L25.1084 40.1177C25.108 40.1177 25.108 40.1181 25.1075 40.1181H25.1071L17.2794 44.6938C16.9586 44.8819 16.5438 44.7805 16.3521 44.4683C16.1599 44.1565 16.264 43.7519 16.5836 43.5646L24.4117 38.9889C24.6851 38.8289 24.8786 38.5752 24.9556 38.2754C25.0403 37.9463 24.9759 37.6097 24.7753 37.3277C24.4274 36.8373 23.6833 36.707 23.1191 37.0373L11.1503 44.0336C10.8883 44.1862 10.5527 44.1491 10.333 43.9424C10.1129 43.7354 10.0634 43.41 10.2116 43.1498L12.7003 38.7806C12.9501 38.3439 12.9403 37.8044 12.6741 37.3722L12.6742 37.372Z" fill="#2A6BAC"/>
<path d="M12.6154 41.6414L22.4239 35.908C23.6065 35.2159 25.1281 35.51 25.8866 36.5777C26.1634 36.9667 26.3047 37.4199 26.3267 37.8814C26.6924 37.6954 27.0903 37.5944 27.4953 37.5944C27.7027 37.5944 27.911 37.6195 28.1167 37.6694C28.7757 37.8299 29.331 38.2312 29.6802 38.7986C30.0298 39.3669 30.1318 40.0329 29.9672 40.6743C29.8152 41.2678 29.4449 41.7673 28.9298 42.11C29.29 42.317 29.6007 42.5995 29.8216 42.9591C30.1712 43.5275 30.2732 44.1932 30.109 44.8353C29.9443 45.4766 29.5325 46.0177 28.9493 46.3588L28.9459 46.3608C29.2997 46.5675 29.6049 46.8471 29.8233 47.2013C30.1733 47.7697 30.2753 48.4357 30.1107 49.0778C29.9456 49.7195 29.5338 50.2606 28.9514 50.6013L16.9751 57.6021C14.7398 58.9082 12.1558 59.3591 9.70009 58.8703C7.22237 58.3771 5.17037 56.9893 3.92267 54.9626C1.94814 51.7561 2.24406 47.9676 4.69342 45.0762C4.80559 44.9442 4.91606 44.8097 5.01637 44.6703C5.12261 44.5231 5.24662 44.3499 5.28895 44.2905C5.54247 43.8492 9.67944 36.5865 9.67901 36.5874C10.0968 35.8528 10.8798 35.4371 11.6873 35.4375C12.064 35.4375 12.4462 35.5278 12.7988 35.7184C13.2246 35.9501 13.5823 36.2879 13.8324 36.695C14.3467 37.5301 14.3649 38.5752 13.8807 39.421L12.6154 41.6414ZM12.6742 37.372C12.543 37.1588 12.3627 36.9889 12.1422 36.8685C11.6863 36.6227 11.1124 36.7827 10.8614 37.2252C7.90122 42.4217 6.89212 44.1926 6.5027 44.8228L6.51158 44.8248C6.47899 44.9304 6.47899 44.9304 6.12262 45.4265C6.00156 45.5944 5.86994 45.7557 5.73576 45.9144C3.62958 48.4009 3.38503 51.53 5.08098 54.2852C6.1315 55.9918 7.86773 57.1618 9.97001 57.58C12.0952 58.0011 14.335 57.6093 16.2791 56.4727L28.2565 49.4716C28.53 49.312 28.723 49.0583 28.8 48.7577C28.877 48.4575 28.8292 48.1453 28.665 47.8788C28.3272 47.3303 27.5937 47.1501 27.0308 47.4804L21.1222 50.9345C20.8022 51.1217 20.3865 51.0211 20.1948 50.7089C20.0026 50.3971 20.1063 49.9925 20.4263 49.8053L26.3354 46.3513L28.2544 45.2295C28.5279 45.0695 28.7213 44.8158 28.7983 44.516C28.8754 44.2153 28.8275 43.9027 28.6633 43.6367C28.3251 43.0878 27.5916 42.9092 27.0291 43.2383L19.201 47.8141C18.8802 48.0018 18.4658 47.9003 18.2736 47.5885C18.0815 47.2767 18.1856 46.8722 18.5052 46.6849L28.1127 41.0691C28.3861 40.9091 28.5791 40.6558 28.6561 40.3552C28.7332 40.0549 28.6853 39.7428 28.5215 39.4763C28.3577 39.2103 28.0974 39.0223 27.7889 38.9472C27.4786 38.8721 27.1595 38.9187 26.8869 39.0779L25.1084 40.1177C25.108 40.1177 25.108 40.1181 25.1075 40.1181H25.1071L17.2794 44.6938C16.9586 44.8819 16.5438 44.7805 16.3521 44.4683C16.1599 44.1565 16.264 43.7519 16.5836 43.5646L24.4117 38.9889C24.6851 38.8289 24.8786 38.5752 24.9556 38.2754C25.0403 37.9463 24.9759 37.6097 24.7753 37.3277C24.4274 36.8373 23.6833 36.707 23.1191 37.0373L11.1503 44.0336C10.8883 44.1862 10.5527 44.1491 10.333 43.9424C10.1129 43.7354 10.0634 43.41 10.2116 43.1498L12.7003 38.7806C12.9501 38.3439 12.9403 37.8044 12.6741 37.3722L12.6742 37.372Z" stroke="#2A6BAC" mask="url(#path-4-outside-2_302_878)"/>
<mask id="path-5-outside-3_302_878" maskUnits="userSpaceOnUse" x="31.8125" y="34.0625" width="30" height="26" fill="black">
<rect fill="white" x="31.8125" y="34.0625" width="30" height="26"/>
<path d="M59.0772 54.9632C57.8299 56.9901 55.7785 58.3774 53.3005 58.8707C50.8444 59.3586 48.2613 58.9086 46.0257 57.6025L34.0488 50.6017C33.466 50.261 33.0537 49.7199 32.8887 49.0774C32.7249 48.4361 32.8273 47.77 33.1765 47.2026C33.3944 46.8479 33.7 46.5683 34.0543 46.3617L34.0509 46.3596C33.4681 46.019 33.0558 45.4779 32.8916 44.8362C32.7266 44.1945 32.829 43.528 33.1786 42.9598C33.4038 42.5948 33.7123 42.3094 34.0644 42.107C33.5532 41.7643 33.1849 41.2665 33.0334 40.6759C32.8684 40.0338 32.9708 39.3677 33.3204 38.8003C33.6696 38.2324 34.2253 37.8311 34.8839 37.6707C35.0896 37.6204 35.2982 37.5957 35.5048 37.5957C35.9102 37.5961 36.3081 37.6963 36.6738 37.8827C36.6962 37.4212 36.8371 36.968 37.1139 36.5791C37.8728 35.5122 39.3931 35.2169 40.5773 35.9093L50.3852 41.6417L49.1209 39.4229C48.6359 38.5759 48.6537 37.5308 49.1679 36.6953C49.4185 36.2887 49.7765 35.9509 50.2044 35.7171C50.5561 35.5274 50.9371 35.4375 51.3128 35.4375C52.12 35.4379 52.9039 35.8528 53.3211 36.5873C54.7754 39.1405 57.5197 43.9557 57.7126 44.2918C57.7537 44.35 57.8777 44.5232 57.9839 44.6704C58.0851 44.8102 58.1943 44.9438 58.3073 45.0766C60.7562 47.9692 61.0516 51.7571 59.0772 54.9632L59.0772 54.9632ZM57.2645 45.9159C57.13 45.7572 56.9979 45.5951 56.8777 45.4281C56.512 44.9225 56.5027 44.9093 56.4752 44.7769C56.0477 44.0878 55.0049 42.2584 52.1383 37.2262C51.8869 36.7845 51.3155 36.6232 50.8605 36.8682C50.6366 36.9903 50.4567 37.1606 50.3255 37.3738C50.0597 37.8056 50.0496 38.345 50.3006 38.783L52.7884 43.1508C52.9369 43.4114 52.8874 43.7364 52.6678 43.9434C52.4485 44.1508 52.1133 44.1871 51.8501 44.0345L39.8817 37.0385C39.3176 36.709 38.574 36.8381 38.2252 37.3289C38.0246 37.6109 37.9607 37.9475 38.0445 38.2761C38.1215 38.5764 38.3149 38.8296 38.5887 38.9896C38.5896 38.99 38.59 38.9908 38.5909 38.9912L46.4162 43.5656C46.7362 43.7528 46.8399 44.157 46.6477 44.4692C46.4556 44.7805 46.0412 44.8824 45.7204 44.6947L36.1132 39.0791C35.8407 38.9199 35.5198 38.8729 35.2117 38.9484C34.9028 39.0234 34.6429 39.2115 34.4791 39.4783C34.3149 39.7443 34.2675 40.0565 34.3437 40.3567C34.4207 40.657 34.6141 40.9106 34.8875 41.0706L36.757 42.1631L44.4942 46.6863C44.8142 46.8735 44.9179 47.2777 44.7258 47.5899C44.5336 47.9013 44.1193 48.0027 43.7984 47.8155L35.9715 43.2399C35.4086 42.9099 34.6755 43.0889 34.3369 43.6382C34.1727 43.9047 34.1253 44.2168 34.2015 44.5171C34.2785 44.8173 34.4719 45.0705 34.7457 45.2309L36.6647 46.3527L42.5727 49.8065C42.8927 49.9938 42.9964 50.3979 42.8042 50.7101C42.6121 51.0215 42.1977 51.1238 41.8769 50.9357L35.9689 47.4818C35.6964 47.3226 35.3768 47.2756 35.067 47.3511C34.7589 47.4261 34.4982 47.6142 34.3344 47.8802C34.1706 48.1466 34.1227 48.4592 34.1989 48.759C34.276 49.0592 34.4694 49.3125 34.7432 49.4729L46.7202 56.4737C48.6638 57.6099 50.9052 58.0033 53.0291 57.581C55.1309 57.1628 56.8671 55.9929 57.9175 54.2863C59.6151 51.5306 59.3709 48.4014 57.2653 45.9159L57.2645 45.9159Z"/>
</mask>
<path d="M59.0772 54.9632C57.8299 56.9901 55.7785 58.3774 53.3005 58.8707C50.8444 59.3586 48.2613 58.9086 46.0257 57.6025L34.0488 50.6017C33.466 50.261 33.0537 49.7199 32.8887 49.0774C32.7249 48.4361 32.8273 47.77 33.1765 47.2026C33.3944 46.8479 33.7 46.5683 34.0543 46.3617L34.0509 46.3596C33.4681 46.019 33.0558 45.4779 32.8916 44.8362C32.7266 44.1945 32.829 43.528 33.1786 42.9598C33.4038 42.5948 33.7123 42.3094 34.0644 42.107C33.5532 41.7643 33.1849 41.2665 33.0334 40.6759C32.8684 40.0338 32.9708 39.3677 33.3204 38.8003C33.6696 38.2324 34.2253 37.8311 34.8839 37.6707C35.0896 37.6204 35.2982 37.5957 35.5048 37.5957C35.9102 37.5961 36.3081 37.6963 36.6738 37.8827C36.6962 37.4212 36.8371 36.968 37.1139 36.5791C37.8728 35.5122 39.3931 35.2169 40.5773 35.9093L50.3852 41.6417L49.1209 39.4229C48.6359 38.5759 48.6537 37.5308 49.1679 36.6953C49.4185 36.2887 49.7765 35.9509 50.2044 35.7171C50.5561 35.5274 50.9371 35.4375 51.3128 35.4375C52.12 35.4379 52.9039 35.8528 53.3211 36.5873C54.7754 39.1405 57.5197 43.9557 57.7126 44.2918C57.7537 44.35 57.8777 44.5232 57.9839 44.6704C58.0851 44.8102 58.1943 44.9438 58.3073 45.0766C60.7562 47.9692 61.0516 51.7571 59.0772 54.9632L59.0772 54.9632ZM57.2645 45.9159C57.13 45.7572 56.9979 45.5951 56.8777 45.4281C56.512 44.9225 56.5027 44.9093 56.4752 44.7769C56.0477 44.0878 55.0049 42.2584 52.1383 37.2262C51.8869 36.7845 51.3155 36.6232 50.8605 36.8682C50.6366 36.9903 50.4567 37.1606 50.3255 37.3738C50.0597 37.8056 50.0496 38.345 50.3006 38.783L52.7884 43.1508C52.9369 43.4114 52.8874 43.7364 52.6678 43.9434C52.4485 44.1508 52.1133 44.1871 51.8501 44.0345L39.8817 37.0385C39.3176 36.709 38.574 36.8381 38.2252 37.3289C38.0246 37.6109 37.9607 37.9475 38.0445 38.2761C38.1215 38.5764 38.3149 38.8296 38.5887 38.9896C38.5896 38.99 38.59 38.9908 38.5909 38.9912L46.4162 43.5656C46.7362 43.7528 46.8399 44.157 46.6477 44.4692C46.4556 44.7805 46.0412 44.8824 45.7204 44.6947L36.1132 39.0791C35.8407 38.9199 35.5198 38.8729 35.2117 38.9484C34.9028 39.0234 34.6429 39.2115 34.4791 39.4783C34.3149 39.7443 34.2675 40.0565 34.3437 40.3567C34.4207 40.657 34.6141 40.9106 34.8875 41.0706L36.757 42.1631L44.4942 46.6863C44.8142 46.8735 44.9179 47.2777 44.7258 47.5899C44.5336 47.9013 44.1193 48.0027 43.7984 47.8155L35.9715 43.2399C35.4086 42.9099 34.6755 43.0889 34.3369 43.6382C34.1727 43.9047 34.1253 44.2168 34.2015 44.5171C34.2785 44.8173 34.4719 45.0705 34.7457 45.2309L36.6647 46.3527L42.5727 49.8065C42.8927 49.9938 42.9964 50.3979 42.8042 50.7101C42.6121 51.0215 42.1977 51.1238 41.8769 50.9357L35.9689 47.4818C35.6964 47.3226 35.3768 47.2756 35.067 47.3511C34.7589 47.4261 34.4982 47.6142 34.3344 47.8802C34.1706 48.1466 34.1227 48.4592 34.1989 48.759C34.276 49.0592 34.4694 49.3125 34.7432 49.4729L46.7202 56.4737C48.6638 57.6099 50.9052 58.0033 53.0291 57.581C55.1309 57.1628 56.8671 55.9929 57.9175 54.2863C59.6151 51.5306 59.3709 48.4014 57.2653 45.9159L57.2645 45.9159Z" fill="#2A6BAC"/>
<path d="M59.0772 54.9632C57.8299 56.9901 55.7785 58.3774 53.3005 58.8707C50.8444 59.3586 48.2613 58.9086 46.0257 57.6025L34.0488 50.6017C33.466 50.261 33.0537 49.7199 32.8887 49.0774C32.7249 48.4361 32.8273 47.77 33.1765 47.2026C33.3944 46.8479 33.7 46.5683 34.0543 46.3617L34.0509 46.3596C33.4681 46.019 33.0558 45.4779 32.8916 44.8362C32.7266 44.1945 32.829 43.528 33.1786 42.9598C33.4038 42.5948 33.7123 42.3094 34.0644 42.107C33.5532 41.7643 33.1849 41.2665 33.0334 40.6759C32.8684 40.0338 32.9708 39.3677 33.3204 38.8003C33.6696 38.2324 34.2253 37.8311 34.8839 37.6707C35.0896 37.6204 35.2982 37.5957 35.5048 37.5957C35.9102 37.5961 36.3081 37.6963 36.6738 37.8827C36.6962 37.4212 36.8371 36.968 37.1139 36.5791C37.8728 35.5122 39.3931 35.2169 40.5773 35.9093L50.3852 41.6417L49.1209 39.4229C48.6359 38.5759 48.6537 37.5308 49.1679 36.6953C49.4185 36.2887 49.7765 35.9509 50.2044 35.7171C50.5561 35.5274 50.9371 35.4375 51.3128 35.4375C52.12 35.4379 52.9039 35.8528 53.3211 36.5873C54.7754 39.1405 57.5197 43.9557 57.7126 44.2918C57.7537 44.35 57.8777 44.5232 57.9839 44.6704C58.0851 44.8102 58.1943 44.9438 58.3073 45.0766C60.7562 47.9692 61.0516 51.7571 59.0772 54.9632L59.0772 54.9632ZM57.2645 45.9159C57.13 45.7572 56.9979 45.5951 56.8777 45.4281C56.512 44.9225 56.5027 44.9093 56.4752 44.7769C56.0477 44.0878 55.0049 42.2584 52.1383 37.2262C51.8869 36.7845 51.3155 36.6232 50.8605 36.8682C50.6366 36.9903 50.4567 37.1606 50.3255 37.3738C50.0597 37.8056 50.0496 38.345 50.3006 38.783L52.7884 43.1508C52.9369 43.4114 52.8874 43.7364 52.6678 43.9434C52.4485 44.1508 52.1133 44.1871 51.8501 44.0345L39.8817 37.0385C39.3176 36.709 38.574 36.8381 38.2252 37.3289C38.0246 37.6109 37.9607 37.9475 38.0445 38.2761C38.1215 38.5764 38.3149 38.8296 38.5887 38.9896C38.5896 38.99 38.59 38.9908 38.5909 38.9912L46.4162 43.5656C46.7362 43.7528 46.8399 44.157 46.6477 44.4692C46.4556 44.7805 46.0412 44.8824 45.7204 44.6947L36.1132 39.0791C35.8407 38.9199 35.5198 38.8729 35.2117 38.9484C34.9028 39.0234 34.6429 39.2115 34.4791 39.4783C34.3149 39.7443 34.2675 40.0565 34.3437 40.3567C34.4207 40.657 34.6141 40.9106 34.8875 41.0706L36.757 42.1631L44.4942 46.6863C44.8142 46.8735 44.9179 47.2777 44.7258 47.5899C44.5336 47.9013 44.1193 48.0027 43.7984 47.8155L35.9715 43.2399C35.4086 42.9099 34.6755 43.0889 34.3369 43.6382C34.1727 43.9047 34.1253 44.2168 34.2015 44.5171C34.2785 44.8173 34.4719 45.0705 34.7457 45.2309L36.6647 46.3527L42.5727 49.8065C42.8927 49.9938 42.9964 50.3979 42.8042 50.7101C42.6121 51.0215 42.1977 51.1238 41.8769 50.9357L35.9689 47.4818C35.6964 47.3226 35.3768 47.2756 35.067 47.3511C34.7589 47.4261 34.4982 47.6142 34.3344 47.8802C34.1706 48.1466 34.1227 48.4592 34.1989 48.759C34.276 49.0592 34.4694 49.3125 34.7432 49.4729L46.7202 56.4737C48.6638 57.6099 50.9052 58.0033 53.0291 57.581C55.1309 57.1628 56.8671 55.9929 57.9175 54.2863C59.6151 51.5306 59.3709 48.4014 57.2653 45.9159L57.2645 45.9159Z" stroke="#2A6BAC" mask="url(#path-5-outside-3_302_878)"/>
</g>
</g>
<defs>
<clipPath id="clip0_302_878">
<rect width="580" height="166" fill="white"/>
</clipPath>
<clipPath id="clip1_302_878">
<rect width="580" height="63" fill="white"/>
</clipPath>
</defs>
</svg>
