<svg xmlns="http://www.w3.org/2000/svg" width="44" height="44" viewBox="0 0 44 44" fill="none">
<path d="M22 5.00928C23.6288 3.1639 26.0118 2 28.6667 2C33.5759 2 37.5556 5.97969 37.5556 10.8889C37.5556 15.7981 33.5759 19.7778 28.6667 19.7778C26.0118 19.7778 23.6288 18.6139 22 16.7685M28.6667 42H2V39.7778C2 32.414 7.96954 26.4444 15.3333 26.4444C22.6971 26.4444 28.6667 32.414 28.6667 39.7778V42ZM28.6667 42H42V39.7778C42 32.414 36.0305 26.4444 28.6667 26.4444C26.2381 26.4444 23.9612 27.0937 22 28.2282M24.2222 10.8889C24.2222 15.7981 20.2425 19.7778 15.3333 19.7778C10.4241 19.7778 6.44444 15.7981 6.44444 10.8889C6.44444 5.97969 10.4241 2 15.3333 2C20.2425 2 24.2222 5.97969 24.2222 10.8889Z" stroke="#2A6BAC" stroke-width="3" stroke-linecap="round" stroke-linejoin="round"/>
</svg>