<svg xmlns="http://www.w3.org/2000/svg" width="63" height="63" viewBox="0 0 63 63" fill="none">
  <g clip-path="url(#clip0_389_1028)">
    <path fill-rule="evenodd" clip-rule="evenodd" d="M15.75 35.4375C15.75 36.4818 15.3352 37.4833 14.5967 38.2217C13.8583 38.9602 12.8568 39.375 11.8125 39.375C10.7682 39.375 9.76669 38.9602 9.02827 38.2217C8.28984 37.4833 7.875 36.4818 7.875 35.4375C7.875 34.3932 8.28984 33.3917 9.02827 32.6533C9.76669 31.9148 10.7682 31.5 11.8125 31.5C12.8568 31.5 13.8583 31.9148 14.5967 32.6533C15.3352 33.3917 15.75 34.3932 15.75 35.4375ZM55.125 35.4375C55.125 36.4818 54.7102 37.4833 53.9717 38.2217L52.8185 35.4375L51.1875 31.5C52.2318 31.5 53.2333 31.9148 53.9717 32.6533C54.7102 33.3917 55.125 34.3932 55.125 35.4375ZM49.5565 35.4375L51.1875 31.5C50.1432 31.5 49.1417 31.9148 48.4033 32.6533C47.6648 33.3917 47.25 34.3932 47.25 35.4375C47.25 36.4818 47.6648 37.4833 48.4033 38.2217L49.5565 35.4375ZM23.625 31.5C22.5807 31.5 21.5792 31.9148 20.8408 32.6533C20.1023 33.3917 19.6875 34.3932 19.6875 35.4375C19.6875 36.4818 20.1023 37.4833 20.8408 38.2217C21.5792 38.9602 22.5807 39.375 23.625 39.375H39.375C40.4193 39.375 41.4208 38.9602 42.1592 38.2217C42.8977 37.4833 43.3125 36.4818 43.3125 35.4375C43.3125 34.3932 42.8977 33.3917 42.1592 32.6533C41.4208 31.9148 40.4193 31.5 39.375 31.5H23.625ZM19.1441 16.8368L15.3799 24.3731C15.226 24.6907 15.1585 25.0432 15.1842 25.3952C15.2099 25.7472 15.3279 26.0861 15.5263 26.378C15.7247 26.6698 15.9965 26.9042 16.3144 27.0576C16.6322 27.2109 16.9849 27.2778 17.3368 27.2514C20.9199 26.964 26.5899 26.5821 31.5 26.5821C36.4101 26.5821 42.084 26.964 45.6632 27.2514C46.0151 27.2778 46.3678 27.2109 46.6856 27.0576C47.0034 26.9042 47.2753 26.6698 47.4737 26.378C47.6721 26.0861 47.7901 25.7472 47.8158 25.3952C47.8415 25.0432 47.774 24.6907 47.6201 24.3731L43.8559 16.8407C43.6928 16.5133 43.4417 16.2379 43.1308 16.0453C42.8199 15.8526 42.4615 15.7504 42.0958 15.75H20.9042C20.5389 15.75 20.1808 15.8517 19.8699 16.0436C19.5591 16.2355 19.3078 16.5101 19.1441 16.8368Z" fill="#2A6BAC"/>
    <path d="M53.0775 13.8403C51.5261 10.2218 47.9666 7.875 44.0291 7.875L31.5039 7.875L31.5035 11.8125H44.0212C45.1779 11.8115 46.3094 12.1501 47.2754 12.7864C48.2414 13.4227 48.9992 14.3286 49.455 15.3917L52.5735 22.6682C53.2369 24.2145 54.4269 25.4757 55.9322 26.2277C56.3644 26.4441 56.7416 26.7562 57.035 27.1404C57.3284 27.5245 57.5303 27.9706 57.6253 28.4445L58.9443 35.0595C59.0231 35.4414 59.0625 35.8273 59.0625 36.2171V37.8433C59.0693 39.344 58.4965 40.7893 57.4636 41.878C56.4307 42.9666 55.0174 43.6145 53.5185 43.6866C47.3964 43.9661 38.6133 44.2968 31.5026 44.2969C31.5029 46.2427 31.5033 47.6351 31.5039 48.2344C36.4455 48.2344 42.1667 48.0769 47.2539 47.8879V53.1563C47.2539 53.6784 47.4613 54.1792 47.8305 54.5484C48.1998 54.9176 48.7005 55.125 49.2227 55.125H57.0977C57.6198 55.125 58.1206 54.9176 58.4898 54.5484C58.859 54.1792 59.0664 53.6784 59.0664 53.1563V45.7065C61.4683 43.9189 63.0039 41.0484 63.0039 37.8433V36.2171C63.0039 35.5674 62.9409 34.9217 62.811 34.2878L61.4919 27.6767C61.0588 25.5229 59.661 23.6919 57.6922 22.7076C57.0228 22.3729 56.4913 21.8059 56.196 21.1168L53.0775 13.8403Z" fill="#18191F"/>
    <path d="M13.5551 9.49814C11.9451 10.5586 10.682 12.0684 9.92247 13.8403H9.93034L6.81184 21.1168C6.51571 21.8078 5.98416 22.3715 5.31166 22.7076C3.34684 23.688 1.94903 25.5229 1.51591 27.6728L0.196844 34.2878C0.069193 34.923 0.00456708 35.5692 0.00390625 36.2171V37.8433C0.00390625 41.0484 1.53953 43.9189 3.94141 45.7065V53.1563C3.94141 53.6784 4.14883 54.1792 4.51804 54.5484C4.88725 54.9176 5.38801 55.125 5.91016 55.125H13.7852C14.3073 55.125 14.8081 54.9176 15.1773 54.5484C15.5465 54.1792 15.7539 53.6784 15.7539 53.1563V47.8879C20.8412 48.0769 26.5623 48.2344 31.5039 48.2344C31.5033 47.6351 31.5029 46.2427 31.5026 44.2969H31.5C31.4989 37.0235 31.499 22.0186 31.5 11.8125H31.5035L31.5039 7.875L18.9787 7.875C17.0509 7.87329 15.165 8.43768 13.5551 9.49814Z" fill="#2A6BAC"/>
  </g>
  <defs>
    <clipPath id="clip0_389_1028">
      <rect width="63" height="63" fill="white"/>
    </clipPath>
  </defs>
</svg>