<?xml version="1.0" standalone="no"?>
<!DOCTYPE svg PUBLIC "-//W3C//DTD SVG 20010904//EN"
 "http://www.w3.org/TR/2001/REC-SVG-20010904/DTD/svg10.dtd">
<svg version="1.0" xmlns="http://www.w3.org/2000/svg"
 width="768.000000pt" height="768.000000pt" viewBox="0 0 768.000000 768.000000"
 preserveAspectRatio="xMidYMid meet">
<metadata>
Created by potrace 1.14, written by Peter Selinger 2001-2017
</metadata>
<g transform="translate(0.000000,768.000000) scale(0.100000,-0.100000)"
fill="#000000" stroke="none">
<path d="M2189 6716 c-2 -2 -24 -7 -49 -10 -25 -3 -56 -8 -70 -11 -14 -3 -35
-8 -47 -11 -12 -2 -35 -9 -50 -15 -16 -6 -29 -10 -31 -9 -5 3 -63 -20 -132
-53 -36 -17 -68 -30 -72 -29 -5 1 -8 -1 -8 -6 0 -4 -17 -16 -37 -27 -91 -47
-258 -194 -323 -284 -14 -19 -31 -40 -37 -47 -7 -7 -13 -17 -13 -21 0 -5 -8
-18 -18 -29 -26 -29 -158 -304 -145 -304 3 0 1 -6 -5 -12 -5 -7 -55 -121 -111
-253 -56 -132 -106 -247 -110 -256 -5 -9 -25 -54 -44 -100 -68 -163 -88 -199
-140 -252 -29 -28 -70 -61 -92 -72 -54 -26 -134 -78 -165 -105 -71 -61 -150
-143 -150 -154 0 -2 -16 -27 -35 -56 -35 -52 -61 -103 -80 -160 -1 -3 -7 -18
-14 -34 -10 -25 -29 -114 -107 -501 -2 -11 -9 -45 -15 -75 -5 -30 -12 -66 -15
-80 -3 -14 -14 -68 -24 -120 -11 -52 -21 -108 -24 -125 -3 -16 -10 -52 -15
-80 -10 -52 -8 -487 2 -540 21 -113 61 -249 80 -273 5 -6 7 -12 4 -12 -9 0 71
-148 113 -210 54 -78 114 -146 195 -219 71 -65 87 -94 75 -141 -4 -14 -4 -34
0 -45 4 -11 4 -34 0 -52 -4 -18 -6 -34 -3 -36 6 -7 9 -97 3 -97 -3 0 -4 -24
-3 -52 6 -123 6 -199 0 -204 -3 -3 -2 -18 3 -33 4 -16 4 -34 0 -41 -7 -12 -4
-59 5 -68 2 -2 -1 -17 -5 -33 -5 -16 -5 -29 -1 -29 4 0 5 -22 1 -50 -4 -27 -4
-50 -1 -50 3 0 7 -24 7 -53 2 -90 52 -164 137 -205 41 -20 61 -21 567 -21 591
-1 585 -2 658 71 37 37 69 103 71 148 3 107 3 319 -1 326 -3 5 -2 18 2 29 4
11 4 32 -1 47 -4 14 -4 29 -1 33 8 7 5 102 -3 115 -3 6 -3 10 2 10 10 0 9 62
-1 79 -7 11 32 33 46 24 4 -2 76 -6 160 -8 84 -3 223 -7 308 -10 311 -9 601
-16 885 -21 340 -6 301 -5 348 -2 20 2 37 -1 37 -6 0 -6 5 -5 11 1 6 6 23 8
44 3 19 -4 36 -5 39 -3 6 7 176 6 183 0 2 -3 18 -1 34 3 17 5 31 5 35 -1 3 -5
10 -7 15 -3 5 3 150 7 322 10 332 4 571 10 862 19 99 3 238 8 308 9 71 2 130
6 132 8 3 2 20 2 39 0 24 -3 35 -9 35 -21 0 -9 1 -23 2 -31 0 -8 0 -41 -1 -73
-1 -32 0 -61 3 -64 3 -3 2 -15 -3 -28 -5 -13 -6 -26 -3 -29 4 -4 6 -25 5 -49
-4 -97 -3 -129 2 -134 2 -3 1 -15 -4 -28 -5 -13 -6 -26 -3 -29 6 -5 7 -66 3
-83 -1 -5 -2 -12 0 -18 1 -5 3 -34 4 -65 4 -69 26 -118 71 -161 71 -68 72 -68
646 -69 574 0 574 0 642 67 44 43 64 82 72 143 10 73 11 170 2 170 -5 0 -5 5
-2 10 4 6 7 51 7 100 0 49 -3 94 -7 100 -3 5 -3 10 2 10 7 0 9 75 3 105 -2 6
-2 15 -1 20 3 14 3 138 1 150 -1 6 -2 12 -1 15 7 18 4 130 -2 130 -5 0 -5 5
-2 11 4 6 7 35 7 64 1 52 3 56 47 92 51 43 125 117 159 159 55 70 82 107 82
115 0 4 6 14 13 21 21 23 66 113 93 185 13 37 28 75 31 83 7 18 7 19 32 135
15 73 19 133 19 310 0 217 -9 313 -48 480 -6 28 -13 61 -15 75 -2 14 -7 36
-10 50 -3 14 -7 36 -10 50 -2 14 -8 45 -14 70 -5 25 -12 56 -14 70 -3 14 -15
75 -27 135 -12 61 -24 121 -26 135 -2 14 -6 36 -8 50 -3 14 -6 27 -7 30 -1 3
-3 10 -4 15 -1 6 -8 30 -15 55 -7 25 -13 47 -13 50 1 3 -20 47 -45 97 -90 178
-224 312 -401 403 -52 26 -131 107 -158 161 -12 24 -50 109 -83 189 -34 80
-68 159 -75 175 -7 17 -32 75 -55 130 -23 55 -50 117 -61 138 -10 22 -19 45
-19 53 0 8 -4 14 -10 14 -5 0 -9 3 -8 8 1 7 -4 23 -29 82 -96 231 -164 345
-278 468 -42 45 -189 172 -199 172 -3 0 -29 16 -56 35 -28 19 -50 33 -50 30 0
-3 -18 6 -40 20 -22 14 -40 23 -40 20 0 -3 -17 3 -37 13 -37 19 -149 54 -208
66 -16 4 -41 10 -55 13 -26 8 -3363 16 -3371 9z m1696 -476 c12 4 28 4 35 0 8
-5 18 -6 23 -3 12 7 112 7 124 0 5 -3 15 -2 22 3 8 4 27 4 42 0 16 -5 29 -5
29 0 0 5 13 5 30 0 18 -5 32 -5 36 1 3 5 10 7 15 3 9 -5 46 -6 129 -3 8 0 24
0 35 -1 17 -1 105 -1 150 0 26 0 45 0 58 -1 6 0 21 0 32 1 11 0 29 0 40 0 11
0 34 0 50 -1 31 0 96 1 118 2 6 0 21 0 32 -1 11 0 45 0 76 1 31 1 61 -1 66 -4
5 -3 15 -2 22 3 8 4 27 4 42 0 20 -6 29 -5 29 3 0 8 3 8 11 0 7 -7 21 -8 40
-3 16 5 31 5 33 1 2 -3 34 -4 70 -1 36 3 66 3 66 0 0 -3 26 -5 58 -5 78 -1
194 -23 227 -43 6 -4 15 -7 21 -8 37 -6 168 -97 229 -158 60 -61 155 -199 155
-226 0 -5 7 -21 15 -37 8 -15 35 -77 60 -138 25 -60 52 -123 60 -140 8 -16 49
-111 91 -210 42 -99 82 -193 89 -210 113 -258 143 -309 231 -401 54 -55 176
-154 191 -154 18 0 132 -79 163 -112 50 -54 87 -135 104 -228 2 -14 7 -38 11
-54 5 -16 9 -36 10 -45 2 -20 13 -82 26 -141 5 -25 11 -54 13 -65 17 -88 41
-205 57 -285 11 -52 22 -108 24 -124 2 -15 7 -36 10 -45 4 -14 17 -160 16
-186 0 -5 -1 -29 -2 -53 -1 -24 1 -45 4 -48 3 -3 1 -19 -3 -35 -5 -17 -5 -31
1 -35 5 -3 7 -10 3 -15 -3 -6 -8 -30 -10 -54 -8 -97 -72 -274 -110 -306 -8 -6
-14 -17 -14 -23 0 -20 -128 -144 -188 -183 -152 -97 -227 -114 -557 -128 -71
-3 -182 -7 -245 -10 -322 -13 -869 -32 -1185 -40 -77 -2 -335 -6 -574 -9 -239
-3 -436 -8 -439 -11 -3 -2 -13 0 -23 5 -12 7 -19 6 -22 -3 -4 -9 -6 -9 -6 0
-1 6 3 14 8 18 6 3 6 17 1 35 -5 17 -6 30 -2 30 8 0 7 79 -2 87 -3 3 -1 13 4
22 5 10 5 23 1 29 -4 7 -5 35 -1 62 4 27 3 55 -1 62 -4 6 -4 19 1 28 5 9 5 22
0 30 -5 8 -5 21 0 30 5 9 5 22 0 30 -5 8 -5 21 0 30 5 9 5 22 0 30 -5 8 -5 21
0 30 5 9 5 22 0 30 -5 8 -5 21 0 30 5 9 5 22 0 30 -5 8 -5 21 0 30 5 9 5 22 0
30 -5 8 -5 21 0 30 5 9 5 22 0 30 -5 8 -5 21 0 30 5 9 5 22 0 30 -5 8 -5 21 0
30 5 9 5 22 0 30 -5 8 -5 21 0 30 5 9 5 22 0 30 -5 8 -5 21 0 30 5 9 5 22 0
30 -5 8 -5 21 0 30 5 9 5 22 0 30 -5 8 -5 21 0 30 5 9 5 22 0 30 -5 8 -5 21 0
30 5 9 5 22 0 30 -5 8 -5 21 0 30 5 9 5 22 0 30 -5 8 -5 21 0 30 5 9 5 22 0
30 -5 8 -5 21 0 30 5 9 5 22 0 30 -5 8 -5 21 0 30 5 9 5 22 0 30 -4 7 -4 24 0
36 6 14 5 26 0 29 -5 3 -5 18 0 35 5 17 5 30 0 30 -5 0 -5 13 0 30 5 17 5 30
0 30 -5 0 -5 13 0 30 5 17 5 30 0 30 -5 0 -5 13 0 30 5 17 5 30 0 30 -5 0 -5
13 0 30 5 17 5 30 0 30 -5 0 -5 13 0 30 5 17 5 30 0 30 -5 0 -5 13 0 30 5 17
5 30 0 30 -5 0 -5 13 0 30 5 17 5 30 0 30 -5 0 -5 13 0 30 5 17 5 30 0 30 -5
0 -5 13 0 30 5 17 5 30 0 30 -5 0 -5 13 0 30 5 17 5 30 0 30 -5 0 -5 13 0 30
5 17 5 30 0 30 -5 0 -5 13 0 30 5 17 5 30 0 30 -5 0 -5 13 0 30 5 17 5 30 0
30 -5 0 -5 13 0 30 5 17 5 30 0 30 -5 0 -5 13 0 30 5 17 5 30 0 30 -5 0 -5 13
0 30 5 17 5 30 0 30 -5 0 -5 13 0 30 5 17 5 30 0 30 -5 0 -5 13 0 30 5 17 6
30 2 30 -4 0 -7 16 -7 35 0 19 3 35 7 35 4 0 3 14 -2 30 -5 17 -5 30 0 30 4 0
5 12 1 27 -4 16 -4 44 -1 65 4 20 4 42 -1 49 -4 7 -4 20 1 29 5 9 5 22 0 30
-5 8 -5 21 0 30 5 9 5 22 0 30 -5 8 -5 21 0 30 5 9 5 22 0 30 -5 8 -5 21 0 30
5 9 5 22 0 30 -5 8 -5 21 0 30 5 9 5 22 0 30 -5 8 -5 21 0 30 5 9 5 22 0 30
-5 8 -5 21 0 30 5 9 5 22 0 30 -5 8 -5 21 0 30 5 9 5 22 0 30 -5 8 -5 21 0 30
5 9 5 22 0 30 -5 8 -5 21 0 30 5 9 5 22 0 30 -5 8 -5 21 0 30 5 9 5 22 0 30
-5 8 -5 21 0 30 5 9 5 22 0 30 -5 8 -5 21 0 30 5 9 5 22 0 30 -5 8 -5 21 0 30
5 9 5 22 0 30 -5 8 -5 21 0 30 5 9 5 22 0 30 -4 7 -4 23 0 35 5 14 4 27 -2 33
-7 7 -7 16 0 29 6 11 7 25 2 33 -11 18 -1 45 13 31 6 -6 18 -6 32 -1z"/>
</g>
</svg>
